<?xml version="1.0" encoding="UTF-8"?>
<svg width="1200pt" height="1200pt" version="1.1" viewBox="0 0 1200 1200" xmlns="http://www.w3.org/2000/svg">
 <path d="m375.6 332.42c-1.5781 0.003906-3.168 0.023437-4.7539 0.058593-6.1328 0.16016-11.023 5.1719-11.039 11.309v39.703c-11.605-0.96484-23.32-1.6797-35.277-1.8438-3.0352-0.042969-5.957 1.1289-8.1211 3.2617-2.1602 2.1289-3.375 5.0391-3.375 8.0742v54.23h-39.883v-0.003907c-6.2578 0-11.336 5.0742-11.336 11.336v397.69c0 6.2617 5.0781 11.336 11.336 11.336h326.72c0.13672 0.003906 0.27734 0.003906 0.41406 0h326.55c6.2578 0 11.332-5.0742 11.332-11.336v-397.69c0-6.2578-5.0703-11.332-11.332-11.336h-39.895v-54.23 0.003907c0-3.2188-1.3633-6.2812-3.7539-8.4336-2.3906-2.1484-5.582-3.1836-8.7773-2.8438-11.531 1.2227-22.879 2.4414-34.242 3.6758v-41.594c-0.007813-3.0742-1.2617-6.0078-3.4727-8.1406-2.2109-2.1328-5.1914-3.2734-8.2617-3.168-90.777 2.8555-184.05 67.57-228.19 111.8-40.938-44.582-125.3-112-224.64-111.87zm6.9062 25.961c87.824 3.6406 170.72 65.262 206.17 104.47v372.52c-57.168-37.121-104.91-70.262-206.17-86.594zm434.96 0.60547v387.91c-41.039 0.070313-83.766 9.5625-121.38 24.5-4.6016 1.7773-9.1211 3.6445-13.551 5.625-3.6133 1.6172-7.0977 3.3047-10.508 5.0195-24.496 11.938-45.469 25.758-60.723 41.062v-359.95c36.852-37.484 127.32-96.227 206.17-104.16zm-481.78 46.035c8.1055 0.30859 16.148 0.76953 24.102 1.4609v351.4h0.003907v0.015626c0.046875 2.5898 0.97656 5.0859 2.6406 7.0703 0.14844 0.17578 0.30078 0.34766 0.45703 0.51562 1.7031 1.8711 3.9844 3.1172 6.4805 3.543 0.046875 0.027344 0.097656 0.050781 0.14844 0.074218 66.844 9.582 107.57 26.227 143.85 46.594-58.605-11.836-117.89-12.238-177.68-18.996v-338.16zm528.54 0.57422v390.44c-10.879-0.042968-21.562 0.16797-32.133 0.5625-6.2773 0.22266-12.43 0.64844-18.613 1.0195-3.668 0.23047-7.375 0.39453-11.012 0.67969-57.344 4.3086-111.13 15.145-166 33.137 14.477-11.871 33.223-23.816 55.277-33.684 10.324-4.6172 21.219-8.8438 32.457-12.547h0.015625c5.2969-1.7461 10.68-3.3555 16.102-4.8555 0.66406-0.17969 1.3281-0.36719 1.9922-0.54688 4.8359-1.3086 9.7188-2.4922 14.613-3.5859 1.0273-0.23047 2.0547-0.46094 3.0859-0.67969 4.9766-1.0625 9.9609-2 14.953-2.8203 0.875-0.14062 1.75-0.27734 2.6289-0.41016 4.8125-0.74609 9.6172-1.3594 14.406-1.8594 1.2773-0.13281 2.5508-0.25781 3.8242-0.36719 4.5938-0.41406 9.1758-0.71875 13.711-0.88672 1.1211-0.042968 2.2461-0.0625 3.3633-0.089844 4.6641-0.10547 9.2812-0.089843 13.844 0.089844 0.51953 0.019532 1.0469 0.035156 1.5625 0.058594l0.007812 0.003906c3.0938 0.13281 6.1094-1.0078 8.3398-3.1523 2.2344-2.1484 3.4922-5.1172 3.4805-8.2148v-349.7c7.9688-0.86719 16.02-1.7305 24.102-2.582zm-431.43 49.383 0.003907 0.003907c-5.6758-0.29688-10.691 3.6523-11.734 9.2383-1.1445 6.1211 2.8633 12.02 8.9727 13.211 35.312 6.6758 62.348 17.859 97.297 49.652v0.003907c4.6094 4.1992 11.746 3.8867 15.973-0.69531 2.0352-2.2266 3.0977-5.1758 2.9531-8.1875-0.14453-3.0156-1.4844-5.8477-3.7227-7.8711-37.426-34.047-70.254-47.988-108.27-55.172h0.003906c-0.48828-0.089844-0.98438-0.14844-1.4766-0.17578zm328.23 0 0.003906 0.003907c-0.49609 0.027343-0.98828 0.085937-1.4766 0.17578-38.012 7.1875-70.84 21.125-108.27 55.172-2.2383 2.0195-3.582 4.8516-3.7305 7.8672-0.14453 3.0156 0.91406 5.9609 2.9492 8.1914 4.2266 4.5859 11.363 4.8945 15.973 0.69531 34.945-31.793 61.988-42.977 97.297-49.652v-0.003907c6.1172-1.1836 10.133-7.082 8.9883-13.211-1.043-5.582-6.0625-9.5352-11.734-9.2383zm-476.56 14.895h28.547v337.19h0.003906c0 5.7148 4.25 10.535 9.918 11.25 11.805 1.4922 23.449 2.668 35.023 3.7344 1.5586 0.14062 3.0938 0.26172 4.6484 0.39844 61.004 5.4336 119.03 7.1289 174.83 22.449h-252.97zm602.45 0h28.559v375.02h-246.59c41-11.906 81.535-19.695 124.19-23.617 1.1289-0.10156 2.2617-0.19922 3.3945-0.29688 15.953-1.3867 32.227-2.2227 48.93-2.5391 1.5898-0.03125 3.1836-0.054688 4.7812-0.074219 8.293-0.10547 16.664-0.12109 25.195 0.03125l0.003906 0.003907c3.043 0.054687 5.9805-1.1172 8.1484-3.2461 2.1719-2.1328 3.3945-5.0469 3.3945-8.0898v-207.05zm-454.11 68.25 0.003906 0.003906c-5.6719-0.29688-10.691 3.6523-11.734 9.2383-1.1445 6.1211 2.8633 12.02 8.9766 13.211 35.312 6.6758 62.348 17.859 97.297 49.652 4.6328 4.1797 11.77 3.8281 15.969-0.78125 4.1797-4.6289 3.8398-11.766-0.76562-15.969-37.426-34.047-70.254-47.988-108.27-55.172-0.48828-0.089844-0.98047-0.15234-1.4766-0.17578zm328.23 0 0.003906 0.003906c-0.49219 0.027344-0.98828 0.085938-1.4727 0.17578-38.012 7.1875-70.84 21.125-108.27 55.172-4.6094 4.1992-4.9609 11.336-0.78125 15.969 4.1992 4.6094 11.336 4.9609 15.969 0.78125 34.945-31.793 61.988-42.977 97.297-49.652 6.1172-1.1836 10.133-7.0859 8.9883-13.211-1.043-5.5859-6.0586-9.5352-11.734-9.2383zm-328.23 83.145h0.003906c-5.6719-0.29688-10.691 3.6562-11.734 9.2422-1.1445 6.1172 2.8633 12.016 8.9766 13.207 35.312 6.6758 62.348 17.844 97.297 49.637 4.6289 4.1836 11.762 3.8398 15.969-0.76562 4.1836-4.6289 3.8398-11.766-0.76562-15.973-37.426-34.047-70.254-47.988-108.27-55.172v0.003906c-0.48828-0.09375-0.98047-0.15234-1.4766-0.17969zm328.23 0h0.003906c-0.49219 0.027344-0.98828 0.085937-1.4727 0.17969-38.012 7.1875-70.84 21.125-108.27 55.172v-0.003907c-4.6094 4.2031-4.9609 11.34-0.78125 15.973 4.2031 4.6055 11.34 4.9492 15.969 0.76562 34.945-31.793 61.988-42.961 97.297-49.637 6.1172-1.1836 10.133-7.082 8.9883-13.211-1.043-5.582-6.0586-9.5352-11.734-9.2383z" fill="#fff"/>
</svg>
