<?xml version="1.0" encoding="UTF-8"?>
<svg width="1200pt" height="1200pt" version="1.1" viewBox="0 0 1200 1200" xmlns="http://www.w3.org/2000/svg">
 <g fill="#fff">
  <path d="m773.28 605.4h176.4v91.441h-176.4z"/>
  <path d="m727.32 605.4h15.961v91.441h-15.961z"/>
  <path d="m695.76 696.84h21.84v-91.441h-21.84c-3.7188 0-6.8398 3.1211-6.8398 6.8398v77.762c0 3.7188 3.1172 6.8398 6.8398 6.8398z"/>
  <path d="m979.68 605.4h18v91.441h-18z"/>
  <path d="m1030.2 690v-77.762c0-3.7188-3.1211-6.8398-6.8398-6.8398h-16.078v91.441h16.078c3.8398 0 6.8398-3.1211 6.8398-6.8398z"/>
  <path d="m434.52 404.76c1.8008-4.4414-0.48047-9.6016-4.9219-11.398l-99.121-38.762c-4.4414-1.8008-9.6016 0.48047-11.398 4.9219l-145.08 370.8 115.44 45.238zm-230.76 313.08 41.039-105 72.359 28.32-41.16 105z"/>
  <path d="m648.72 477.24c0.35938-3.9609-2.5195-7.5586-6.6016-8.0391l-83.281-8.0391c-3.9609-0.35938-7.5586 2.5195-8.0391 6.6016l-1.6797 17.16 97.801 9.4805z"/>
  <path d="m520.18 784.7 1.6562-17.078 97.816 9.4844-1.6562 17.078z"/>
  <path d="m1042.6 815.4v-89.879c0-4.8008-3.9609-8.7617-8.7617-8.7617h-20.641v98.641h-12.48v-98.641l-300.6 0.003907v98.641h-12.48v-98.641h-28.199c-4.8008 0-8.7617 3.9609-8.7617 8.7617v89.879h-34.68l1.0781-10.922-97.801-9.4805-1.9219 20.398h-21.359l47.648-430.2c0.96094-8.1602-3-15.48-8.6406-16.078l-66.602-7.4414c-5.6406-0.60156-11.039 5.6406-11.879 13.801l-48.359 435.6c-0.12109 1.4414-0.12109 2.8789 0 4.1992h-134.28l9.6016-24.602-115.44-45.121-12.359 31.441c-1.8008 4.4414 0.48047 9.6016 4.9219 11.398l68.879 27h-124.32v32.52l986.88 0.003906v-32.52zm-577.32-413.04 62.281 6.9609-4.5586 41.039-62.281-6.9609zm19.801 389.64-62.281-6.9609 4.4414-41.039 62.281 6.9609z"/>
  <path d="m546.31 514.64 1.8633-19.23 97.816 9.4844-1.8633 19.23z"/>
  <path d="m524.95 735.57 18.297-188.71 97.816 9.4844-18.297 188.71z"/>
 </g>
</svg>
