<?xml version="1.0" encoding="UTF-8"?>
<svg width="1200pt" height="1200pt" version="1.1" viewBox="0 0 1200 1200" xmlns="http://www.w3.org/2000/svg">
 <g fill="#ff6978">
  <path d="m600 270c-182.4 0-330 147.6-330 330s147.6 330 330 330 330-147.6 330-330-147.6-330-330-330zm0 600c-148.8 0-270-121.2-270-270s121.2-270 270-270 270 121.2 270 270-121.2 270-270 270z"/>
  <path d="m678 450h-156c-16.801 0-30 13.199-30 30s13.199 30 30 30h156c16.801 0 30-13.199 30-30s-13.199-30-30-30z"/>
  <path d="m678 570h-156c-16.801 0-30 13.199-30 30s13.199 30 30 30h156c16.801 0 30-13.199 30-30s-13.199-30-30-30z"/>
  <path d="m678 690h-156c-16.801 0-30 13.199-30 30s13.199 30 30 30h156c16.801 0 30-13.199 30-30s-13.199-30-30-30z"/>
 </g>
</svg>
