<svg width="24" height="24" viewBox="0 0 24 24" fill="none" xmlns="http://www.w3.org/2000/svg">
<g clip-path="url(#clip0_26_245)">
<path d="M9.00008 2.99996C9.00008 2.20434 9.31618 1.4412 9.87876 0.878558C10.4413 0.315918 11.2045 -0.00012207 12.0002 -0.00012207C12.7959 -0.00012207 13.5589 0.315978 14.1216 0.878558C14.6842 1.44114 15.0002 2.20426 15.0002 2.99996C15.0002 3.79566 14.6841 4.55872 14.1216 5.12136C13.559 5.684 12.7959 6.00004 12.0002 6.00004C11.2048 5.9991 10.4423 5.68278 9.87976 5.12036C9.31726 4.55794 9.001 3.79544 9.00008 2.99996V2.99996ZM12.0001 8.99996C11.2045 8.99996 10.4413 9.31606 9.87868 9.87864C9.31604 10.4412 9 11.2043 9 12C9 12.7957 9.3161 13.5588 9.87868 14.1214C10.4413 14.6841 11.2044 15.0001 12.0001 15.0001C12.7958 15.0001 13.5588 14.684 14.1215 14.1214C14.6841 13.5589 15.0002 12.7957 15.0002 12C14.9992 11.2046 14.6829 10.4421 14.1205 9.87964C13.5581 9.31714 12.7956 9.00088 12.0001 8.99996V8.99996ZM12.0001 18C11.2045 18 10.4413 18.3161 9.87868 18.8786C9.31604 19.4412 9 20.2043 9 21C9 21.7957 9.3161 22.5588 9.87868 23.1214C10.4413 23.6841 11.2044 24.0001 12.0001 24.0001C12.7958 24.0001 13.5588 23.684 14.1215 23.1214C14.6841 22.5589 15.0002 21.7957 15.0002 21C14.9992 20.2046 14.6829 19.4421 14.1205 18.8796C13.5581 18.3171 12.7956 18.0009 12.0001 18V18Z" fill="#D66A5F"/>
</g>
<defs>
<clipPath id="clip0_26_245">
<rect width="24" height="24" fill="white"/>
</clipPath>
</defs>
</svg>
