<?xml version="1.0" encoding="UTF-8"?>
<svg width="1200pt" height="1200pt" version="1.1" viewBox="0 0 1200 1200" xmlns="http://www.w3.org/2000/svg">
 <g fill="#9ae5b3">
  <path d="m852 540-256.8 166.8-258-166.8c-6-3.6016-13.199-2.3984-16.801 3.6016-3.6016 6-2.3984 13.199 3.6016 16.801l264 171.6c2.3984 1.1992 4.8008 2.3984 6 2.3984s4.8008-1.1992 6-2.3984l264-170.4c6-3.6016 7.1992-10.801 3.6016-16.801-2.4023-6-9.6016-8.4023-15.602-4.8008z"/>
  <path d="m595.2 188.4c-238.8 0-432 193.2-432 432 0 238.8 193.2 432 432 432s432-193.2 432-432c0-238.8-194.4-432-432-432zm0 840c-224.4 0-408-183.6-408-408 0-224.4 183.6-408 408-408 224.4 0 408 183.6 408 408 0 224.4-183.6 408-408 408z"/>
 </g>
</svg>
