<?xml version="1.0" encoding="UTF-8"?>
<svg width="1200pt" height="1200pt" version="1.1" viewBox="0 0 1200 1200" xmlns="http://www.w3.org/2000/svg">
 <path d="m600 60c-297.72 0-540 242.28-540 540s242.28 540 540 540 540-242.28 540-540-242.28-540-540-540zm0 1032c-271.32 0-492-220.68-492-492s220.68-492 492-492 492 220.68 492 492-220.68 492-492 492zm268.92-676.92c9.3594 9.3594 9.3594 24.602 0 33.961l-336 336c-4.6836 4.5625-10.801 6.9609-16.922 6.9609s-12.238-2.3984-16.922-7.0781l-168-168c-9.3594-9.3594-9.3594-24.602 0-33.961 9.3594-9.3594 24.602-9.3594 33.961 0l150.96 151.08 319.08-319.08c9.3633-9.3594 24.48-9.3594 33.844 0.11719z" fill="#05d69f"/>
</svg>
